<mxfile type="github" version="12.4.9" etag="fz7BGTXl_inqrt8rSDDT" agent="Mozilla/5.0 (Windows NT 10.0; Win64; x64) AppleWebKit/537.36 (KHTML, like Gecko) Chrome/70.0.3538.102 Safari/537.36 Edge/18.18362" modified="2020-01-09T01:22:30.832Z" host="www.draw.io">
  <diagram id="13e1069c-82ec-6db2-03f1-153e76fe0fe0" name="Page-1">
    <mxGraphModel grid="1" shadow="0" math="0" background="#ffffff" pageHeight="850" pageWidth="1100" pageScale="1" page="1" fold="1" arrows="1" connect="1" tooltips="1" guides="1" gridSize="10" dy="792" dx="1422">
      <root>
        <mxCell id="0"/>
        <mxCell id="1" parent="0"/>
        <mxCell id="XAI1HucwZ2nyAOawFUFM-1" value="&lt;span style=&quot;display: inline ; float: none ; background-color: rgb(248 , 249 , 250) ; color: transparent ; font-family: monospace ; font-size: 0px ; font-style: normal ; font-variant: normal ; font-weight: 400 ; letter-spacing: normal ; text-align: left ; text-decoration: none ; text-indent: 0px ; text-transform: none ; white-space: nowrap ; word-break: break-all ; word-spacing: 0px&quot;&gt;%3CmxGraphModel%3E%3Croot%3E%3CmxCell%20id%3D%220%22%2F%3E%3CmxCell%20id%3D%221%22%20parent%3D%220%22%2F%3E%3CmxCell%20id%3D%222%22%20value%3D%22%E5%89%8D%E7%BD%AE%E7%99%BB%E5%BD%95%EF%BC%88%E5%92%AA%E5%92%95%EF%BC%89%22%20parent%3D%221%22%20vertex%3D%221%22%20style%3D%22shape%3DumlLifeline%3Bperimeter%3DlifelinePerimeter%3BwhiteSpace%3Dwrap%3Bhtml%3D1%3Bcontainer%3D1%3Bcollapsible%3D0%3BrecursiveResize%3D0%3BoutlineConnect%3D0%3Brounded%3D1%3Bshadow%3D0%3Bcomic%3D0%3BlabelBackgroundColor%3Dnone%3BstrokeWidth%3D1%3BfontFamily%3DVerdana%3BfontSize%3D12%3Balign%3Dcenter%3B%22%3E%3CmxGeometry%20as%3D%22geometry%22%20height%3D%22580%22%20width%3D%22100%22%20y%3D%2280%22%20x%3D%22238%22%2F%3E%3C%2FmxCell%3E%3CmxCell%20id%3D%223%22%20value%3D%22AAA(%E7%99%BE%E8%A7%86%E9%80%9A)%22%20parent%3D%221%22%20vertex%3D%221%22%20style%3D%22shape%3DumlLifeline%3Bperimeter%3DlifelinePerimeter%3BwhiteSpace%3Dwrap%3Bhtml%3D1%3Bcontainer%3D1%3Bcollapsible%3D0%3BrecursiveResize%3D0%3BoutlineConnect%3D0%3Brounded%3D1%3Bshadow%3D0%3Bcomic%3D0%3BlabelBackgroundColor%3Dnone%3BstrokeWidth%3D1%3BfontFamily%3DVerdana%3BfontSize%3D12%3Balign%3Dcenter%3B%22%3E%3CmxGeometry%20as%3D%22geometry%22%20height%3D%22580%22%20width%3D%22100%22%20y%3D%2280%22%20x%3D%22388%22%2F%3E%3C%2FmxCell%3E%3CmxCell%20id%3D%224%22%20value%3D%22%22%20parent%3D%223%22%20vertex%3D%221%22%20style%3D%22html%3D1%3Bpoints%3D%5B%5D%3Bperimeter%3DorthogonalPerimeter%3Brounded%3D0%3Bshadow%3D0%3Bcomic%3D0%3BlabelBackgroundColor%3Dnone%3BstrokeWidth%3D1%3BfontFamily%3DVerdana%3BfontSize%3D12%3Balign%3Dcenter%3B%22%3E%3CmxGeometry%20as%3D%22geometry%22%20height%3D%2250%22%20width%3D%2210%22%20y%3D%22100%22%20x%3D%2245%22%2F%3E%3C%2FmxCell%3E%3CmxCell%20id%3D%225%22%20value%3D%22%22%20parent%3D%223%22%20vertex%3D%221%22%20style%3D%22shape%3DrequiredInterface%3Bhtml%3D1%3BverticalLabelPosition%3Dbottom%3B%22%3E%3CmxGeometry%20as%3D%22geometry%22%20height%3D%2220%22%20width%3D%2210%22%20y%3D%22130%22%20x%3D%2255%22%2F%3E%3C%2FmxCell%3E%3CmxCell%20id%3D%226%22%20value%3D%22%E6%9C%BA%E9%A1%B6%E7%9B%92%26lt%3Bbr%26gt%3B%EF%BC%88%E5%92%AA%E8%A7%86%E9%80%9AAPK%EF%BC%89%22%20parent%3D%221%22%20vertex%3D%221%22%20style%3D%22shape%3DumlLifeline%3Bperimeter%3DlifelinePerimeter%3BwhiteSpace%3Dwrap%3Bhtml%3D1%3Bcontainer%3D1%3Bcollapsible%3D0%3BrecursiveResize%3D0%3BoutlineConnect%3D0%3Brounded%3D1%3Bshadow%3D0%3Bcomic%3D0%3BlabelBackgroundColor%3Dnone%3BstrokeWidth%3D1%3BfontFamily%3DVerdana%3BfontSize%3D12%3Balign%3Dcenter%3B%22%3E%3CmxGeometry%20as%3D%22geometry%22%20height%3D%22580%22%20width%3D%22100%22%20y%3D%2280%22%20x%3D%2288%22%2F%3E%3C%2FmxCell%3E%3CmxCell%20id%3D%227%22%20value%3D%22%22%20parent%3D%226%22%20vertex%3D%221%22%20style%3D%22html%3D1%3Bpoints%3D%5B%5D%3Bperimeter%3DorthogonalPerimeter%3Brounded%3D0%3Bshadow%3D0%3Bcomic%3D0%3BlabelBackgroundColor%3Dnone%3BstrokeWidth%3D1%3BfontFamily%3DVerdana%3BfontSize%3D12%3Balign%3Dcenter%3B%22%3E%3CmxGeometry%20as%3D%22geometry%22%20height%3D%22150%22%20width%3D%2210%22%20y%3D%2290%22%20x%3D%2245%22%2F%3E%3C%2FmxCell%3E%3CmxCell%20id%3D%228%22%20value%3D%22%E7%94%A8%E6%88%B7%E7%99%BB%E5%BD%95*%EF%BC%88Logon%EF%BC%89%22%20parent%3D%221%22%20style%3D%22html%3D1%3BverticalAlign%3Dbottom%3BendArrow%3Dblock%3BentryX%3D0.1%3BentryY%3D0.045%3BlabelBackgroundColor%3Dnone%3BfontFamily%3DVerdana%3BfontSize%3D12%3BedgeStyle%3DelbowEdgeStyle%3Belbow%3Dvertical%3BentryDx%3D0%3BentryDy%3D0%3BentryPerimeter%3D0%3B%22%20edge%3D%221%22%20target%3D%224%22%20source%3D%227%22%3E%3CmxGeometry%20as%3D%22geometry%22%20relative%3D%221%22%3E%3CmxPoint%20as%3D%22sourcePoint%22%20y%3D%22190%22%20x%3D%22208%22%2F%3E%3CmxPoint%20as%3D%22targetPoint%22%20y%3D%22180%22%20x%3D%22283%22%2F%3E%3C%2FmxGeometry%3E%3C%2FmxCell%3E%3CmxCell%20id%3D%229%22%20value%3D%22Note%22%20parent%3D%221%22%20vertex%3D%221%22%20style%3D%22shape%3Dnote%3BwhiteSpace%3Dwrap%3Bhtml%3D1%3Bsize%3D14%3BverticalAlign%3Dtop%3Balign%3Dleft%3BspacingTop%3D-6%3Brounded%3D0%3Bshadow%3D0%3Bcomic%3D0%3BlabelBackgroundColor%3Dnone%3BstrokeWidth%3D1%3BfontFamily%3DVerdana%3BfontSize%3D12%22%3E%3CmxGeometry%20as%3D%22geometry%22%20height%3D%2235%22%20width%3D%22100%22%20y%3D%2230%22%20x%3D%2288%22%2F%3E%3C%2FmxCell%3E%3CmxCell%20id%3D%2210%22%20value%3D%22Note%22%20parent%3D%221%22%20vertex%3D%221%22%20style%3D%22shape%3Dnote%3BwhiteSpace%3Dwrap%3Bhtml%3D1%3Bsize%3D14%3BverticalAlign%3Dtop%3Balign%3Dleft%3BspacingTop%3D-6%3Brounded%3D0%3Bshadow%3D0%3Bcomic%3D0%3BlabelBackgroundColor%3Dnone%3BstrokeWidth%3D1%3BfontFamily%3DVerdana%3BfontSize%3D12%22%3E%3CmxGeometry%20as%3D%22geometry%22%20height%3D%2235%22%20width%3D%22100%22%20y%3D%2230%22%20x%3D%22228%22%2F%3E%3C%2FmxCell%3E%3CmxCell%20id%3D%2211%22%20value%3D%22Note%22%20parent%3D%221%22%20vertex%3D%221%22%20style%3D%22shape%3Dnote%3BwhiteSpace%3Dwrap%3Bhtml%3D1%3Bsize%3D14%3BverticalAlign%3Dtop%3Balign%3Dleft%3BspacingTop%3D-6%3Brounded%3D0%3Bshadow%3D0%3Bcomic%3D0%3BlabelBackgroundColor%3Dnone%3BstrokeWidth%3D1%3BfontFamily%3DVerdana%3BfontSize%3D12%22%3E%3CmxGeometry%20as%3D%22geometry%22%20height%3D%2235%22%20width%3D%22100%22%20y%3D%2230%22%20x%3D%22388%22%2F%3E%3C%2FmxCell%3E%3CmxCell%20id%3D%2212%22%20value%3D%22PS(%E7%99%BE%E8%A7%86%E9%80%9A)%22%20parent%3D%221%22%20vertex%3D%221%22%20style%3D%22shape%3DumlLifeline%3Bperimeter%3DlifelinePerimeter%3BwhiteSpace%3Dwrap%3Bhtml%3D1%3Bcontainer%3D1%3Bcollapsible%3D0%3BrecursiveResize%3D0%3BoutlineConnect%3D0%3Brounded%3D1%3Bshadow%3D0%3Bcomic%3D0%3BlabelBackgroundColor%3Dnone%3BstrokeWidth%3D1%3BfontFamily%3DVerdana%3BfontSize%3D12%3Balign%3Dcenter%3B%22%3E%3CmxGeometry%20as%3D%22geometry%22%20height%3D%22580%22%20width%3D%22100%22%20y%3D%2280%22%20x%3D%22530%22%2F%3E%3C%2FmxCell%3E%3CmxCell%20id%3D%2213%22%20value%3D%22%22%20parent%3D%2212%22%20vertex%3D%221%22%20style%3D%22html%3D1%3Bpoints%3D%5B%5D%3Bperimeter%3DorthogonalPerimeter%3Brounded%3D0%3Bshadow%3D0%3Bcomic%3D0%3BlabelBackgroundColor%3Dnone%3BstrokeWidth%3D1%3BfontFamily%3DVerdana%3BfontSize%3D12%3Balign%3Dcenter%3B%22%3E%3CmxGeometry%20as%3D%22geometry%22%20height%3D%2260%22%20width%3D%2210%22%20y%3D%22270%22%20x%3D%2245%22%2F%3E%3C%2FmxCell%3E%3CmxCell%20id%3D%2214%22%20value%3D%22WAG(%E7%99%BE%E8%A7%86%E9%80%9A)%22%20parent%3D%221%22%20vertex%3D%221%22%20style%3D%22shape%3DumlLifeline%3Bperimeter%3DlifelinePerimeter%3BwhiteSpace%3Dwrap%3Bhtml%3D1%3Bcontainer%3D1%3Bcollapsible%3D0%3BrecursiveResize%3D0%3BoutlineConnect%3D0%3Brounded%3D1%3Bshadow%3D0%3Bcomic%3D0%3BlabelBackgroundColor%3Dnone%3BstrokeWidth%3D1%3BfontFamily%3DVerdana%3BfontSize%3D12%3Balign%3Dcenter%3B%22%3E%3CmxGeometry%20as%3D%22geometry%22%20height%3D%22580%22%20width%3D%22100%22%20y%3D%2280%22%20x%3D%22680%22%2F%3E%3C%2FmxCell%3E%3CmxCell%20id%3D%2215%22%20value%3D%22%22%20parent%3D%2214%22%20vertex%3D%221%22%20style%3D%22html%3D1%3Bpoints%3D%5B%5D%3Bperimeter%3DorthogonalPerimeter%3Brounded%3D0%3Bshadow%3D0%3Bcomic%3D0%3BlabelBackgroundColor%3Dnone%3BstrokeWidth%3D1%3BfontFamily%3DVerdana%3BfontSize%3D12%3Balign%3Dcenter%3B%22%3E%3CmxGeometry%20as%3D%22geometry%22%20height%3D%2260%22%20width%3D%2210%22%20y%3D%22270%22%20x%3D%2245%22%2F%3E%3C%2FmxCell%3E%3CmxCell%20id%3D%2216%22%20value%3D%22%E7%BB%9F%E4%B8%80%E6%94%AF%E4%BB%98%E5%B9%B3%E5%8F%B0%26lt%3Bbr%26gt%3B(%E7%99%BE%E8%A7%86%E9%80%9A)%22%20parent%3D%221%22%20vertex%3D%221%22%20style%3D%22shape%3DumlLifeline%3Bperimeter%3DlifelinePerimeter%3BwhiteSpace%3Dwrap%3Bhtml%3D1%3Bcontainer%3D1%3Bcollapsible%3D0%3BrecursiveResize%3D0%3BoutlineConnect%3D0%3Brounded%3D1%3Bshadow%3D0%3Bcomic%3D0%3BlabelBackgroundColor%3Dnone%3BstrokeWidth%3D1%3BfontFamily%3DVerdana%3BfontSize%3D12%3Balign%3Dcenter%3B%22%3E%3CmxGeometry%20as%3D%22geometry%22%20height%3D%22580%22%20width%3D%22100%22%20y%3D%2280%22%20x%3D%22830%22%2F%3E%3C%2FmxCell%3E%3CmxCell%20id%3D%2217%22%20value%3D%22%22%20parent%3D%2216%22%20vertex%3D%221%22%20style%3D%22html%3D1%3Bpoints%3D%5B%5D%3Bperimeter%3DorthogonalPerimeter%3Brounded%3D0%3Bshadow%3D0%3Bcomic%3D0%3BlabelBackgroundColor%3Dnone%3BstrokeWidth%3D1%3BfontFamily%3DVerdana%3BfontSize%3D12%3Balign%3Dcenter%3B%22%3E%3CmxGeometry%20as%3D%22geometry%22%20height%3D%2260%22%20width%3D%2210%22%20y%3D%22270%22%20x%3D%2245%22%2F%3E%3C%2FmxCell%3E%3C%2Froot%3E%3C%2FmxGraphModel%3E&lt;/span&gt;" parent="1" vertex="1" style="text;html=1;align=center;verticalAlign=middle;resizable=0;points=[];autosize=1;">
          <mxGeometry as="geometry" height="20" width="20" y="308" x="686"/>
        </mxCell>
        <mxCell id="XAI1HucwZ2nyAOawFUFM-2" value="前置登录（咪咕）" parent="1" vertex="1" style="shape=umlLifeline;perimeter=lifelinePerimeter;whiteSpace=wrap;html=1;container=1;collapsible=0;recursiveResize=0;outlineConnect=0;rounded=1;shadow=0;comic=0;labelBackgroundColor=none;strokeWidth=1;fontFamily=Verdana;fontSize=12;align=center;">
          <mxGeometry as="geometry" height="740" width="100" y="90" x="360"/>
        </mxCell>
        <mxCell id="XAI1HucwZ2nyAOawFUFM-37" value="" parent="XAI1HucwZ2nyAOawFUFM-2" vertex="1" style="html=1;points=[];perimeter=orthogonalPerimeter;">
          <mxGeometry as="geometry" height="110" width="10" y="420" x="45"/>
        </mxCell>
        <mxCell id="XAI1HucwZ2nyAOawFUFM-41" value="用户登录" parent="XAI1HucwZ2nyAOawFUFM-2" style="html=1;verticalAlign=bottom;endArrow=block;" edge="1">
          <mxGeometry as="geometry" width="80" relative="1">
            <mxPoint as="sourcePoint" y="490" x="62"/>
            <mxPoint as="targetPoint" y="490" x="192"/>
          </mxGeometry>
        </mxCell>
        <mxCell id="XAI1HucwZ2nyAOawFUFM-3" value="AAA(bestv)" parent="1" vertex="1" style="shape=umlLifeline;perimeter=lifelinePerimeter;whiteSpace=wrap;html=1;container=1;collapsible=0;recursiveResize=0;outlineConnect=0;rounded=1;shadow=0;comic=0;labelBackgroundColor=none;strokeWidth=1;fontFamily=Verdana;fontSize=12;align=center;">
          <mxGeometry as="geometry" height="750" width="100" y="90" x="510"/>
        </mxCell>
        <mxCell id="XAI1HucwZ2nyAOawFUFM-4" value="" parent="XAI1HucwZ2nyAOawFUFM-3" vertex="1" style="html=1;points=[];perimeter=orthogonalPerimeter;rounded=0;shadow=0;comic=0;labelBackgroundColor=none;strokeWidth=1;fontFamily=Verdana;fontSize=12;align=center;">
          <mxGeometry as="geometry" height="80" width="10" y="100" x="45"/>
        </mxCell>
        <mxCell id="XAI1HucwZ2nyAOawFUFM-40" value="" parent="XAI1HucwZ2nyAOawFUFM-3" vertex="1" style="html=1;points=[];perimeter=orthogonalPerimeter;">
          <mxGeometry as="geometry" height="50" width="10" y="480" x="45"/>
        </mxCell>
        <mxCell id="XAI1HucwZ2nyAOawFUFM-6" value="机顶盒&lt;br&gt;（咪视通APK）" parent="1" vertex="1" style="shape=umlLifeline;perimeter=lifelinePerimeter;whiteSpace=wrap;html=1;container=1;collapsible=0;recursiveResize=0;outlineConnect=0;rounded=1;shadow=0;comic=0;labelBackgroundColor=none;strokeWidth=1;fontFamily=Verdana;fontSize=12;align=center;">
          <mxGeometry as="geometry" height="750" width="100" y="90" x="210"/>
        </mxCell>
        <mxCell id="XAI1HucwZ2nyAOawFUFM-7" value="" parent="XAI1HucwZ2nyAOawFUFM-6" vertex="1" style="html=1;points=[];perimeter=orthogonalPerimeter;rounded=0;shadow=0;comic=0;labelBackgroundColor=none;strokeWidth=1;fontFamily=Verdana;fontSize=12;align=center;">
          <mxGeometry as="geometry" height="110" width="10" y="90" x="45"/>
        </mxCell>
        <mxCell id="XAI1HucwZ2nyAOawFUFM-19" value="" parent="XAI1HucwZ2nyAOawFUFM-6" vertex="1" style="html=1;points=[];perimeter=orthogonalPerimeter;">
          <mxGeometry as="geometry" height="88" width="10" y="232" x="45"/>
        </mxCell>
        <mxCell id="XAI1HucwZ2nyAOawFUFM-20" value="鉴权" parent="XAI1HucwZ2nyAOawFUFM-6" style="html=1;verticalAlign=bottom;endArrow=block;" edge="1">
          <mxGeometry as="geometry" width="80" relative="1">
            <mxPoint as="sourcePoint" y="240" x="54"/>
            <mxPoint as="targetPoint" y="240" x="486"/>
          </mxGeometry>
        </mxCell>
        <mxCell id="XAI1HucwZ2nyAOawFUFM-30" value="" parent="XAI1HucwZ2nyAOawFUFM-6" vertex="1" style="html=1;points=[];perimeter=orthogonalPerimeter;">
          <mxGeometry as="geometry" height="380" width="10" y="360" x="45"/>
        </mxCell>
        <mxCell id="XAI1HucwZ2nyAOawFUFM-32" value="订购" parent="XAI1HucwZ2nyAOawFUFM-6" style="html=1;verticalAlign=bottom;endArrow=block;" edge="1">
          <mxGeometry as="geometry" width="80" relative="1">
            <mxPoint as="sourcePoint" y="370" x="52"/>
            <mxPoint as="targetPoint" y="370" x="630"/>
          </mxGeometry>
        </mxCell>
        <mxCell id="XAI1HucwZ2nyAOawFUFM-38" value="唤起登录" parent="XAI1HucwZ2nyAOawFUFM-6" style="html=1;verticalAlign=bottom;endArrow=block;" edge="1">
          <mxGeometry as="geometry" width="80" y="10" x="-0.0769" relative="1">
            <mxPoint as="sourcePoint" y="430" x="62"/>
            <mxPoint as="targetPoint" y="430" x="192"/>
            <mxPoint as="offset"/>
          </mxGeometry>
        </mxCell>
        <mxCell id="XAI1HucwZ2nyAOawFUFM-69" value="支付" parent="XAI1HucwZ2nyAOawFUFM-6" style="html=1;verticalAlign=bottom;endArrow=block;" edge="1" target="XAI1HucwZ2nyAOawFUFM-14">
          <mxGeometry as="geometry" width="80" relative="1">
            <mxPoint as="sourcePoint" y="590" x="50"/>
            <mxPoint as="targetPoint" y="590" x="130"/>
          </mxGeometry>
        </mxCell>
        <mxCell id="XAI1HucwZ2nyAOawFUFM-8" value="用户开机*（Logon）" parent="1" style="html=1;verticalAlign=bottom;endArrow=block;entryX=0.1;entryY=0.045;labelBackgroundColor=none;fontFamily=Verdana;fontSize=12;edgeStyle=elbowEdgeStyle;elbow=vertical;entryDx=0;entryDy=0;entryPerimeter=0;" edge="1" target="XAI1HucwZ2nyAOawFUFM-4" source="XAI1HucwZ2nyAOawFUFM-7">
          <mxGeometry as="geometry" relative="1">
            <mxPoint as="sourcePoint" y="200" x="330"/>
            <mxPoint as="targetPoint" y="190" x="405"/>
          </mxGeometry>
        </mxCell>
        <mxCell id="XAI1HucwZ2nyAOawFUFM-12" value="PS(&lt;span style=&quot;display: inline ; float: none ; background-color: rgb(248 , 249 , 250) ; color: rgb(0 , 0 , 0) ; font-family: &amp;#34;verdana&amp;#34; ; font-size: 12px ; font-style: normal ; font-variant: normal ; font-weight: normal ; letter-spacing: normal ; line-height: 1.2 ; overflow-wrap: normal ; text-align: center ; text-decoration: none ; text-indent: 0px ; text-transform: none ; white-space: normal ; word-spacing: 0px&quot;&gt;bestv&lt;/span&gt;)" parent="1" vertex="1" style="shape=umlLifeline;perimeter=lifelinePerimeter;whiteSpace=wrap;html=1;container=1;collapsible=0;recursiveResize=0;outlineConnect=0;rounded=1;shadow=0;comic=0;labelBackgroundColor=none;strokeWidth=1;fontFamily=Verdana;fontSize=12;align=center;">
          <mxGeometry as="geometry" height="730" width="100" y="90" x="652"/>
        </mxCell>
        <mxCell id="XAI1HucwZ2nyAOawFUFM-13" value="" parent="XAI1HucwZ2nyAOawFUFM-12" vertex="1" style="html=1;points=[];perimeter=orthogonalPerimeter;rounded=0;shadow=0;comic=0;labelBackgroundColor=none;strokeWidth=1;fontFamily=Verdana;fontSize=12;align=center;">
          <mxGeometry as="geometry" height="78" width="10" y="232" x="45"/>
        </mxCell>
        <mxCell id="XAI1HucwZ2nyAOawFUFM-72" value="" parent="XAI1HucwZ2nyAOawFUFM-12" vertex="1" style="html=1;points=[];perimeter=orthogonalPerimeter;">
          <mxGeometry as="geometry" height="40" width="10" y="650" x="44"/>
        </mxCell>
        <mxCell id="XAI1HucwZ2nyAOawFUFM-14" value="WAG(&lt;span style=&quot;display: inline ; float: none ; background-color: rgb(248 , 249 , 250) ; color: rgb(0 , 0 , 0) ; font-family: &amp;#34;verdana&amp;#34; ; font-size: 12px ; font-style: normal ; font-variant: normal ; font-weight: normal ; letter-spacing: normal ; line-height: 1.2 ; overflow-wrap: normal ; text-align: center ; text-decoration: none ; text-indent: 0px ; text-transform: none ; white-space: normal ; word-spacing: 0px&quot;&gt;bestv&lt;/span&gt;)" parent="1" vertex="1" style="shape=umlLifeline;perimeter=lifelinePerimeter;whiteSpace=wrap;html=1;container=1;collapsible=0;recursiveResize=0;outlineConnect=0;rounded=1;shadow=0;comic=0;labelBackgroundColor=none;strokeWidth=1;fontFamily=Verdana;fontSize=12;align=center;">
          <mxGeometry as="geometry" height="710" width="100" y="90" x="802"/>
        </mxCell>
        <mxCell id="XAI1HucwZ2nyAOawFUFM-31" value="" parent="XAI1HucwZ2nyAOawFUFM-14" vertex="1" style="html=1;points=[];perimeter=orthogonalPerimeter;">
          <mxGeometry as="geometry" height="280" width="10" y="360" x="45"/>
        </mxCell>
        <mxCell id="XAI1HucwZ2nyAOawFUFM-67" value="支付" parent="XAI1HucwZ2nyAOawFUFM-14" style="html=1;verticalAlign=bottom;endArrow=block;" edge="1" target="XAI1HucwZ2nyAOawFUFM-16">
          <mxGeometry as="geometry" width="80" relative="1">
            <mxPoint as="sourcePoint" y="590" x="58"/>
            <mxPoint as="targetPoint" y="590" x="138"/>
          </mxGeometry>
        </mxCell>
        <mxCell id="XAI1HucwZ2nyAOawFUFM-16" value="统一支付平台&lt;br&gt;(&lt;span style=&quot;display: inline ; float: none ; background-color: rgb(248 , 249 , 250) ; color: rgb(0 , 0 , 0) ; font-family: &amp;#34;verdana&amp;#34; ; font-size: 12px ; font-style: normal ; font-variant: normal ; font-weight: normal ; letter-spacing: normal ; line-height: 1.2 ; overflow-wrap: normal ; text-align: center ; text-decoration: none ; text-indent: 0px ; text-transform: none ; white-space: normal ; word-spacing: 0px&quot;&gt;bestv&lt;/span&gt;)" parent="1" vertex="1" style="shape=umlLifeline;perimeter=lifelinePerimeter;whiteSpace=wrap;html=1;container=1;collapsible=0;recursiveResize=0;outlineConnect=0;rounded=1;shadow=0;comic=0;labelBackgroundColor=none;strokeWidth=1;fontFamily=Verdana;fontSize=12;align=center;">
          <mxGeometry as="geometry" height="710" width="100" y="90" x="952"/>
        </mxCell>
        <mxCell id="XAI1HucwZ2nyAOawFUFM-17" value="" parent="XAI1HucwZ2nyAOawFUFM-16" vertex="1" style="html=1;points=[];perimeter=orthogonalPerimeter;rounded=0;shadow=0;comic=0;labelBackgroundColor=none;strokeWidth=1;fontFamily=Verdana;fontSize=12;align=center;">
          <mxGeometry as="geometry" height="70" width="10" y="570" x="45"/>
        </mxCell>
        <mxCell id="XAI1HucwZ2nyAOawFUFM-18" value="返回bestvToken" parent="1" style="html=1;verticalAlign=bottom;endArrow=open;dashed=1;endSize=8;" edge="1" target="XAI1HucwZ2nyAOawFUFM-6">
          <mxGeometry as="geometry" relative="1">
            <mxPoint as="sourcePoint" y="250" x="552"/>
            <mxPoint as="targetPoint" y="250" x="472"/>
          </mxGeometry>
        </mxCell>
        <mxCell id="7baba1c4bc27f4b0-39" value="验证盒子" parent="1" style="html=1;verticalAlign=bottom;endArrow=block;labelBackgroundColor=none;fontFamily=Verdana;fontSize=12;elbow=vertical;edgeStyle=orthogonalEdgeStyle;curved=1;" edge="1">
          <mxGeometry as="geometry" y="-27" x="0.3386" relative="1">
            <mxPoint as="sourcePoint" y="200" x="562"/>
            <mxPoint as="targetPoint" y="234" x="562"/>
            <Array as="points">
              <mxPoint y="200" x="601"/>
              <mxPoint y="234" x="601"/>
            </Array>
            <mxPoint as="offset" y="9" x="20"/>
          </mxGeometry>
        </mxCell>
        <mxCell id="XAI1HucwZ2nyAOawFUFM-29" value="返回鉴权结果" parent="1" style="html=1;verticalAlign=bottom;endArrow=open;dashed=1;endSize=8;" edge="1" target="XAI1HucwZ2nyAOawFUFM-6">
          <mxGeometry as="geometry" relative="1">
            <mxPoint as="sourcePoint" y="380" x="692"/>
            <mxPoint as="targetPoint" y="380" x="612"/>
          </mxGeometry>
        </mxCell>
        <mxCell id="XAI1HucwZ2nyAOawFUFM-36" value="回调登录" parent="1" style="html=1;verticalAlign=bottom;endArrow=open;dashed=1;endSize=8;" edge="1" target="XAI1HucwZ2nyAOawFUFM-6">
          <mxGeometry as="geometry" relative="1">
            <mxPoint as="sourcePoint" y="490" x="842"/>
            <mxPoint as="targetPoint" y="490" x="762"/>
          </mxGeometry>
        </mxCell>
        <mxCell id="XAI1HucwZ2nyAOawFUFM-42" value="返回bestv用户权益" parent="1" style="html=1;verticalAlign=bottom;endArrow=open;dashed=1;endSize=8;" edge="1">
          <mxGeometry as="geometry" relative="1">
            <mxPoint as="sourcePoint" y="600" x="552"/>
            <mxPoint as="targetPoint" y="600" x="422"/>
          </mxGeometry>
        </mxCell>
        <mxCell id="XAI1HucwZ2nyAOawFUFM-43" value="返回权益" parent="1" style="html=1;verticalAlign=bottom;endArrow=open;dashed=1;endSize=8;" edge="1" target="XAI1HucwZ2nyAOawFUFM-6">
          <mxGeometry as="geometry" relative="1">
            <mxPoint as="sourcePoint" y="600" x="402"/>
            <mxPoint as="targetPoint" y="600" x="322"/>
          </mxGeometry>
        </mxCell>
        <mxCell id="XAI1HucwZ2nyAOawFUFM-44" value="游客登录" parent="1" vertex="1" style="shape=umlFrame;whiteSpace=wrap;html=1;">
          <mxGeometry as="geometry" height="183" width="870" y="470" x="60"/>
        </mxCell>
        <mxCell id="XAI1HucwZ2nyAOawFUFM-49" value="回调wag" parent="1" style="html=1;verticalAlign=bottom;endArrow=block;" edge="1" target="XAI1HucwZ2nyAOawFUFM-14">
          <mxGeometry as="geometry" width="80" relative="1">
            <mxPoint as="sourcePoint" y="640" x="262"/>
            <mxPoint as="targetPoint" y="640" x="342"/>
          </mxGeometry>
        </mxCell>
        <mxCell id="XAI1HucwZ2nyAOawFUFM-60" value="" parent="1" vertex="1" style="shape=umlLifeline;participant=umlActor;perimeter=lifelinePerimeter;whiteSpace=wrap;html=1;container=1;collapsible=0;recursiveResize=0;verticalAlign=top;spacingTop=36;labelBackgroundColor=#ffffff;outlineConnect=0;">
          <mxGeometry as="geometry" height="690" width="20" y="110" x="90"/>
        </mxCell>
        <mxCell id="XAI1HucwZ2nyAOawFUFM-61" value="用户登录" parent="XAI1HucwZ2nyAOawFUFM-60" style="html=1;verticalAlign=bottom;endArrow=block;" edge="1">
          <mxGeometry as="geometry" width="80" relative="1">
            <mxPoint as="sourcePoint" y="441" x="10"/>
            <mxPoint as="targetPoint" y="441" x="319.5"/>
          </mxGeometry>
        </mxCell>
        <mxCell id="XAI1HucwZ2nyAOawFUFM-62" value="用户开机" parent="XAI1HucwZ2nyAOawFUFM-60" style="html=1;verticalAlign=bottom;endArrow=block;" edge="1">
          <mxGeometry as="geometry" width="80" relative="1">
            <mxPoint as="sourcePoint" y="80" x="10"/>
            <mxPoint as="targetPoint" y="80" x="160"/>
          </mxGeometry>
        </mxCell>
        <mxCell id="XAI1HucwZ2nyAOawFUFM-63" value="用户详情" parent="XAI1HucwZ2nyAOawFUFM-60" style="html=1;verticalAlign=bottom;endArrow=block;" edge="1">
          <mxGeometry as="geometry" width="80" relative="1">
            <mxPoint as="sourcePoint" y="220" x="10"/>
            <mxPoint as="targetPoint" y="220" x="160"/>
          </mxGeometry>
        </mxCell>
        <mxCell id="XAI1HucwZ2nyAOawFUFM-66" value="扫码支付" parent="XAI1HucwZ2nyAOawFUFM-60" style="html=1;verticalAlign=bottom;endArrow=block;" edge="1">
          <mxGeometry as="geometry" width="80" y="10" x="-0.0667" relative="1">
            <mxPoint as="sourcePoint" y="570" x="10"/>
            <mxPoint as="targetPoint" y="570" x="160"/>
            <mxPoint as="offset"/>
          </mxGeometry>
        </mxCell>
        <mxCell id="XAI1HucwZ2nyAOawFUFM-68" value="支付成功" parent="1" style="html=1;verticalAlign=bottom;endArrow=open;dashed=1;endSize=8;" edge="1">
          <mxGeometry as="geometry" relative="1">
            <mxPoint as="sourcePoint" y="710" x="990"/>
            <mxPoint as="targetPoint" y="710" x="860"/>
          </mxGeometry>
        </mxCell>
        <mxCell id="XAI1HucwZ2nyAOawFUFM-70" value="支付成功" parent="1" style="html=1;verticalAlign=bottom;endArrow=open;dashed=1;endSize=8;" edge="1" target="XAI1HucwZ2nyAOawFUFM-6">
          <mxGeometry as="geometry" relative="1">
            <mxPoint as="sourcePoint" y="710" x="840"/>
            <mxPoint as="targetPoint" y="710" x="760"/>
          </mxGeometry>
        </mxCell>
        <mxCell id="XAI1HucwZ2nyAOawFUFM-73" value="鉴权" parent="1" style="html=1;verticalAlign=bottom;endArrow=block;" edge="1">
          <mxGeometry as="geometry" width="80" relative="1">
            <mxPoint as="sourcePoint" y="750" x="265"/>
            <mxPoint as="targetPoint" y="750" x="690"/>
          </mxGeometry>
        </mxCell>
        <mxCell id="XAI1HucwZ2nyAOawFUFM-74" value="return" parent="1" style="html=1;verticalAlign=bottom;endArrow=open;dashed=1;endSize=8;" edge="1" target="XAI1HucwZ2nyAOawFUFM-6">
          <mxGeometry as="geometry" relative="1">
            <mxPoint as="sourcePoint" y="770" x="690"/>
            <mxPoint as="targetPoint" y="770" x="610"/>
          </mxGeometry>
        </mxCell>
        <mxCell id="XAI1HucwZ2nyAOawFUFM-76" value="播放" parent="1" style="html=1;verticalAlign=bottom;endArrow=block;labelBackgroundColor=none;fontFamily=Verdana;fontSize=12;elbow=vertical;edgeStyle=orthogonalEdgeStyle;curved=1;" edge="1">
          <mxGeometry as="geometry" y="-27" x="0.3386" relative="1">
            <mxPoint as="sourcePoint" y="786" x="271"/>
            <mxPoint as="targetPoint" y="820" x="271"/>
            <Array as="points">
              <mxPoint y="786" x="310"/>
              <mxPoint y="820" x="310"/>
            </Array>
            <mxPoint as="offset" y="9" x="20"/>
          </mxGeometry>
        </mxCell>
      </root>
    </mxGraphModel>
  </diagram>
</mxfile>
